<?xml version="1.0" encoding="UTF-8"?>
<svg id="Layer_6" data-name="Layer 6" xmlns="http://www.w3.org/2000/svg" viewBox="0 0 150 150">
  <defs>
    <style>
      .cls-1 {
        fill: #070707;
      }

      .cls-1, .cls-2, .cls-3 {
        stroke-width: 0px;
      }

      .cls-4 {
        fill: #eff2f4;
        stroke: #19161a;
        stroke-width: 2px;
      }

      .cls-4, .cls-5 {
        stroke-miterlimit: 10;
      }

      .cls-5 {
        fill: #211f22;
        stroke: #181519;
        stroke-width: 4px;
      }

      .cls-2 {
        fill: #19161a;
      }

      .cls-3 {
        fill: #f1f2f4;
      }
    </style>
  </defs>
  <path class="cls-1" d="M65,8.76l1.11-.78c.29-.2.69-.02.73.33l1.47,13c.03.25-.15.48-.41.51l-1.18.13c-.25.03-.48-.15-.51-.41l-1.4-12.36c-.02-.17.06-.34.2-.43Z"/>
  <circle class="cls-5" cx="73.48" cy="79.17" r="56.1"/>
  <ellipse class="cls-4" cx="59.44" cy="50.31" rx="22.11" ry="16.73" transform="translate(-15.62 29.57) rotate(-24.8)"/>
  <path class="cls-2" d="M62.13,41.9s2.93-4.08-2.31-4.76c-5.24-.68-11.16,3.31-14.03,8.52s1.7,6.25,5.36,5.48c0,0-3.16,6.51.72,8.9s11.64-2.16,16.37-6.66,7.11-9.08,2.53-11.46c-4.58-2.38-8.63-.02-8.63-.02Z"/>
  <path class="cls-3" d="M57.77,42.74s3.14-4.74-2.68-2.46-7,6.31-5.68,7.29,5.61-1.69,8.37-4.84Z"/>
  <path class="cls-3" d="M66.64,44.29s-4.18-.69-8.27,2.58c-4.09,3.27-4.77,7.03-3.24,8.76s7.29-1.11,10.04-3.68,4.66-6.96,1.47-7.66Z"/>
</svg>