<?xml version="1.0" encoding="UTF-8"?>
<svg id="Layer_6" data-name="Layer 6" xmlns="http://www.w3.org/2000/svg" xmlns:xlink="http://www.w3.org/1999/xlink" viewBox="0 0 150 250">
  <defs>
    <style>
      .cls-1 {
        stroke: #d67f16;
      }

      .cls-1, .cls-2, .cls-3 {
        fill: #e1a658;
      }

      .cls-1, .cls-4, .cls-5 {
        stroke-miterlimit: 10;
      }

      .cls-1, .cls-5 {
        stroke-width: 2.4px;
      }

      .cls-4 {
        stroke-width: 4.79px;
      }

      .cls-4, .cls-6, .cls-5 {
        fill: #744a3e;
      }

      .cls-4, .cls-5 {
        stroke: #5b362f;
      }

      .cls-3, .cls-6, .cls-7 {
        stroke-width: 0px;
      }

      .cls-8 {
        clip-path: url(#clippath);
      }

      .cls-7 {
        fill: #3b3632;
      }
    </style>
    <clipPath id="clippath">
      <ellipse class="cls-3" cx="78.69" cy="72.34" rx="18.34" ry="14.61"/>
    </clipPath>
  </defs>
  <path class="cls-5" d="M52.47,100.22s-4.56-7.86-16.51-4.58c-11.95,3.28-13.68,65.71-13.84,69.48s0,6.76,5.5,7.23c5.5.47,16.18,2.08,17.05-5.01.87-7.1-.54-35.08,1.82-46.09s7.71-17.06,5.98-21.03Z"/>
  <path class="cls-1" d="M39.57,189.96s6.76-.94,4.72-13.37-20.47-12.26-23.43,0,5.97,17.61,9.91,18.08,4.87-2.36,2.67-5.35-5.66-8.81-1.73-9.12,5.03,4.09,5.19,5.5.93,5,2.67,4.25Z"/>
  <path class="cls-5" d="M102.79,100.22s4.56-7.86,16.51-4.58c11.95,3.28,13.68,65.71,13.84,69.48s0,6.76-5.5,7.23c-5.5.47-16.18,2.08-17.05-5.01s.54-35.08-1.82-46.09-7.71-17.06-5.98-21.03Z"/>
  <path class="cls-1" d="M115.68,189.96s-6.76-.94-4.72-13.37c2.04-12.42,20.47-12.26,23.43,0,2.96,12.26-5.97,17.61-9.91,18.08s-4.87-2.36-2.67-5.35c2.2-2.99,5.66-8.81,1.73-9.12s-5.03,4.09-5.19,5.5-.93,5-2.67,4.25Z"/>
  <path class="cls-5" d="M102.22,156.77h-49.12c-1.68,0-3.04,1.36-3.04,3.04v8.03c0,.93.76,1.69,1.69,1.69h14.86c3.54,0,6.41,2.87,6.41,6.41v13.68c0,1.76,1.43,3.18,3.18,3.18h2.91c1.76,0,3.18-1.43,3.18-3.18v-13.68c0-3.54,2.87-6.41,6.41-6.41h14.86c.93,0,1.69-.76,1.69-1.69v-8.03c0-1.68-1.36-3.04-3.04-3.04Z"/>
  <path class="cls-4" d="M96.08,156.77h-37.47c-6.55,0-12.8-6.74-12.2-13.26,1.18-9.93,2.36-19.87,3.55-29.8.57-4.75,1.13-9.5,1.7-14.26.03-.31.19-1.65,1.35-2.71.75-.68,1.74-1.1,2.82-1.1h43.04c2.17,0,3.97,1.65,4.17,3.81l5.24,44.06c.6,6.52-5.65,13.26-12.2,13.26Z"/>
  <g>
    <path class="cls-5" d="M47.89,179.09l-3.32,60.95c-.12,2.12,1.16,4.07,3.16,4.8,2.86,1.04,6.77,2.02,11.43,2.04,4.81.02,8.82-.98,11.74-2.04,2-.72,3.29-2.67,3.17-4.8-.28-5.22-2-44.73-2.74-60.91-.16-3.53-3.07-6.3-6.6-6.3h-10.25c-3.51,0-6.41,2.74-6.6,6.25Z"/>
    <path class="cls-1" d="M73.06,221.41h-27.48l-1.01,18.64c-.12,2.12,1.16,4.07,3.16,4.8,2.86,1.04,6.77,2.02,11.43,2.04,4.81.02,8.82-.98,11.74-2.04,2-.72,3.29-2.67,3.17-4.8-.34-6.21-.68-12.42-1.01-18.64Z"/>
  </g>
  <g>
    <path class="cls-5" d="M84.04,178.92l-3.32,60.95c-.12,2.12,1.16,4.07,3.16,4.8,2.86,1.04,6.77,2.02,11.43,2.04,4.81.02,8.82-.98,11.74-2.04,2-.72,3.29-2.67,3.17-4.8-.28-5.22-2-44.73-2.74-60.91-.16-3.53-3.07-6.3-6.6-6.3h-10.25c-3.51,0-6.41,2.74-6.6,6.25Z"/>
    <path class="cls-1" d="M109.22,221.24h-27.48l-1.01,18.64c-.12,2.12,1.16,4.07,3.16,4.8,2.86,1.04,6.77,2.02,11.43,2.04,4.81.02,8.82-.98,11.74-2.04,2-.72,3.29-2.67,3.17-4.8-.34-6.21-.68-12.42-1.01-18.64Z"/>
  </g>
  <path class="cls-5" d="M64.14,17.32s-5.72-14.83-16.99-14.19c-11.26.64-19.2,13.73-15.77,24.35s13.94,12.91,17.16,13.27,15.59-23.43,15.59-23.43Z"/>
  <path class="cls-5" d="M92.49,17.32s5.72-14.83,16.99-14.19,19.2,13.73,15.77,24.35c-3.43,10.62-13.94,12.91-17.16,13.27-3.22.36-15.59-23.43-15.59-23.43Z"/>
  <path class="cls-5" d="M92.63,93.08h-29.54c-10.57,0-19.13-8.56-19.13-19.13l2.41-27.41c0-17.31,11.62-31.39,28.93-31.39h5.12c17.31,0,28.72,13.87,28.72,31.18l2.62,27.63c0,10.57-8.56,19.13-19.13,19.13Z"/>
  <g>
    <path class="cls-3" d="M71.51,30.6h14.27c8.64,0,15.66,7.02,15.66,15.66v4.59c0,6.13-4.97,11.1-11.1,11.1h-23.38c-6.13,0-11.1-4.97-11.1-11.1v-4.59c0-8.64,7.02-15.66,15.66-15.66Z"/>
    <ellipse class="cls-7" cx="65.5" cy="46.8" rx="4.61" ry="7.32"/>
    <ellipse class="cls-7" cx="91.67" cy="46.8" rx="4.61" ry="7.32"/>
  </g>
  <ellipse class="cls-6" cx="78.64" cy="70.53" rx="20.06" ry="16.42"/>
  <g>
    <ellipse class="cls-2" cx="78.69" cy="72.34" rx="18.34" ry="14.61"/>
    <g class="cls-8">
      <rect class="cls-7" x="59.6" y="74.79" width="38.83" height="3.86"/>
      <rect class="cls-7" x="72.58" y="62.35" width="12.87" height="2.79" rx="1.39" ry="1.39"/>
    </g>
  </g>
</svg>