<?xml version="1.0" encoding="UTF-8"?>
<svg id="Layer_6" data-name="Layer 6" xmlns="http://www.w3.org/2000/svg" xmlns:xlink="http://www.w3.org/1999/xlink" viewBox="0 0 175 150">
  <defs>
    <style>
      .cls-1 {
        fill: #1f3935;
      }

      .cls-1, .cls-2, .cls-3 {
        stroke-width: 0px;
      }

      .cls-4 {
        stroke: #122824;
      }

      .cls-4, .cls-5, .cls-6 {
        fill: none;
        stroke-miterlimit: 10;
      }

      .cls-4, .cls-6 {
        stroke-width: 4px;
      }

      .cls-7, .cls-3 {
        fill: #d4d6d8;
      }

      .cls-5 {
        stroke-width: 2px;
      }

      .cls-5, .cls-6 {
        stroke: #db9907;
      }

      .cls-2 {
        fill: #f8bd29;
      }

      .cls-8 {
        clip-path: url(#clippath-1);
      }
    </style>
    <clipPath id="clippath-1">
      <path class="cls-3" d="M69.26,52.74c-.56.42-1.35-.12-1.15-.79.54-1.87,2.03-4.67,6.14-6.78,6.75-3.45,8.95,1.88,10.83,7.22s10.52,28.42,12.09,32.5,2.2,5.65,5.81,4.24c1.95-.76,4.12-2.99,5.72-4.87.53-.63,1.55-.04,1.26.74-.89,2.38-2.51,5.77-5.48,9.79-5.9,8.01-9.04,5.02-12.18-1.1-2.61-5.09-3.97-11.48-4.35-13.49-.07-.37-.4-.62-.77-.6l-10.06.56c-.31.02-.58.23-.67.53l-2.35,7.89c-.1.33.03.67.33.85.96.57,3.03,1.86,3.75,2.69.84.98,1.33-2.35,5.54-2.24.66.02.98.83.5,1.29-1.81,1.71-5.07,4.98-5.08,6.45-.02,2.04-6.61-3.14-10.22-3.14-2.97,0-7.41.74-10.13,2.83-.55.43-1.33-.1-1.16-.77.72-2.86,3.04-7.39,10.46-7.99.31-.02.57-.23.66-.53l6.35-21.47c.06-.22.03-.44-.1-.63-.72-1.04-3.25-4.33-4.98-1.92l-1.4,1.95c-.34.47-1.05.4-1.29-.13-.45-1.01-.8-2.74.34-5.11,1.55-3.23,6.61-2.63,8.36-2.32.36.06.71-.14.82-.48.5-1.45,1.44-5.12-1.17-6.62-2.13-1.22-4.79.25-6.4,1.45Z"/>
    </clipPath>
  </defs>
  <g>
    <path class="cls-1" d="M9.86,108.6s1.88-55.27,11.15-70.65S51.94,8.75,86.01,8.9s60.99,11.46,69.83,32.81,9.3,66.88,9.3,66.88l-41.61,22.29s-97.5-1.52-99.07-3.35-14.6-18.94-14.6-18.94Z"/>
    <path class="cls-4" d="M9.86,108.6s1.88-55.27,11.15-70.65S51.94,8.75,86.01,8.9s60.99,11.46,69.83,32.81,9.3,66.88,9.3,66.88l-41.61,22.29s-97.5-1.52-99.07-3.35-14.6-18.94-14.6-18.94Z"/>
  </g>
  <g>
    <path class="cls-7" d="M69.26,52.74c-.56.42-1.35-.12-1.15-.79.54-1.87,2.03-4.67,6.14-6.78,6.75-3.45,8.95,1.88,10.83,7.22s10.52,28.42,12.09,32.5,2.2,5.65,5.81,4.24c1.95-.76,4.12-2.99,5.72-4.87.53-.63,1.55-.04,1.26.74-.89,2.38-2.51,5.77-5.48,9.79-5.9,8.01-9.04,5.02-12.18-1.1-2.61-5.09-3.97-11.48-4.35-13.49-.07-.37-.4-.62-.77-.6l-10.06.56c-.31.02-.58.23-.67.53l-2.35,7.89c-.1.33.03.67.33.85.96.57,3.03,1.86,3.75,2.69.84.98,1.33-2.35,5.54-2.24.66.02.98.83.5,1.29-1.81,1.71-5.07,4.98-5.08,6.45-.02,2.04-6.61-3.14-10.22-3.14-2.97,0-7.41.74-10.13,2.83-.55.43-1.33-.1-1.16-.77.72-2.86,3.04-7.39,10.46-7.99.31-.02.57-.23.66-.53l6.35-21.47c.06-.22.03-.44-.1-.63-.72-1.04-3.25-4.33-4.98-1.92l-1.4,1.95c-.34.47-1.05.4-1.29-.13-.45-1.01-.8-2.74.34-5.11,1.55-3.23,6.61-2.63,8.36-2.32.36.06.71-.14.82-.48.5-1.45,1.44-5.12-1.17-6.62-2.13-1.22-4.79.25-6.4,1.45Z"/>
    <g class="cls-8">
      <polygon class="cls-1" points="86.02 73.9 81.15 61.82 77.69 73.9 86.02 73.9"/>
    </g>
  </g>
  <path class="cls-3" d="M99.52,62.29s.63-3.77-1.1-4.4-1.26,2.51-1.73,4.08-1.1,5.02-1.1,5.02l3.93-4.71Z"/>
  <path class="cls-3" d="M118.48,64s2.23-4.54-4.52-5.48-9.09,1.73-9.49,6.28,2.35,5.81,5.53,6.44,6.16,2.98,3.33,4.24-5.81-4.13-8.16-.81,2.41,5.52,6.47,6.15,9.55-4.71,8.14-8.01-4.9-5.65-7.56-5.81-3.75-2.38-1.39-3,5.27,2.97,7.66,0Z"/>
  <g>
    <path class="cls-2" d="M10.18,108.6s-9.58,6.75-6.75,18.06,38.94,18.84,68.45,19.63,71.44-.31,89.96-10.52,6.91-23.87,3.61-27.16c0,0-5.81,5.81-36.16,9.11-42.73,4.64-60.87,1.88-87.72-.79s-31.4-8.32-31.4-8.32Z"/>
    <path class="cls-6" d="M10.18,108.6s-9.58,6.75-6.75,18.06,38.94,18.84,68.45,19.63,71.44-.31,89.96-10.52,6.91-23.87,3.61-27.16c0,0-5.81,5.81-36.16,9.11-42.73,4.64-60.87,1.88-87.72-.79s-31.4-8.32-31.4-8.32Z"/>
  </g>
  <g>
    <rect class="cls-2" x="82.8" y="5.19" width="12.07" height="5.34" rx="2.67" ry="2.67"/>
    <rect class="cls-5" x="82.8" y="5.19" width="12.07" height="5.34" rx="2.67" ry="2.67"/>
  </g>
</svg>