<?xml version="1.0" encoding="UTF-8"?>
<svg id="Layer_6" data-name="Layer 6" xmlns="http://www.w3.org/2000/svg" viewBox="0 0 325 475">
  <defs>
    <style>
      .cls-1 {
        fill: #f09a13;
      }

      .cls-1, .cls-2 {
        stroke-width: 0px;
      }

      .cls-3 {
        fill: #955819;
        stroke: #7c4013;
        stroke-width: 5.25px;
      }

      .cls-3, .cls-4 {
        stroke-miterlimit: 10;
      }

      .cls-2 {
        fill: #e6d9b6;
      }

      .cls-4 {
        fill: #729d14;
        stroke: #5a770b;
        stroke-linecap: round;
        stroke-width: 2.63px;
      }
    </style>
  </defs>
  <path class="cls-3" d="M214.36,460.95h-103c-11.22,0-30.81-9.09-30.81-20.31,1.93-17.34,3.25-36.43,3.46-57.04.25-25.09-1.18-48.06-3.46-68.49,0-.59.06-3.73,2.59-6.26,1.6-1.6,3.82-2.59,6.26-2.59h146.91c4.89,0,8.86,3.97,8.86,8.86,1.38,26.91,1.96,50.69,2.16,70.65.42,42.49-1,60.06-13.36,69.24-6.44,4.78-13.94,5.87-19.61,5.95Z"/>
  <g>
    <path class="cls-2" d="M181.14,399.76l-23.06,2.1c-1.2,0-2.18-.97-2.18-2.18l-1.05-23.86c0-1.2.97-2.18,2.18-2.18l24.11-2.1c1.2,0,2.18.97,2.18,2.18v23.86c0,1.2-.97,2.18-2.18,2.18Z"/>
    <path class="cls-1" d="M177.08,382.76l1.53,12.01c0,.08-.04.15-.11.17-1.3.35-11.95,3.05-15.28-.77-3.54-4.07-5.84-12.52,1.17-16.93s11.57-.13,12.1,1.37-.07,3.96-2.98,3.24c-2.49-.62-2-2.94-1.08-3.97.1-.12,0-.3-.16-.25-1.1.33-3.18,1.4-2.86,4.7.4,4.08,6.17,3.08,7.36.41.07-.15.28-.13.3.03Z"/>
  </g>
  <g>
    <path class="cls-4" d="M151.94,314.53c-1.04-5.32-5.28-32.72-12.08-45.55-6.79-12.83-21.65-22.3-20.77-61.48.89-39.18,13.05-69.88,16.4-76.92,3.36-7.05,8.15-15.69,16.44-18.87,0,0-7.55,6.79-8.56,31.2s-.75,34.98-.75,34.98c0,0,18.76,12.33,20.71,10.32s30.38-63.16,68.12-76.5,48.82-12.58,48.82-12.58c0,0-34.73,25.42-47.56,35.48s-22.65,41.77-39.76,58.13-11.77,73.48-11.77,73.48c0,0,5.82-13.92,21.38-21.93,15.56-8.01,51.79-1.81,57.83,2.01,6.04,3.82,30.7.3,39,2.81,0,0-14.09.5-25.42,3.27-11.32,2.77-19.63-9.31-39-2.77-19.38,6.54-6.41,8.44-6.41,8.44,0,0,8.43,1.69,9.68,5.81,1.26,4.12,3.27,9.66,21.14,5.13s40.01,1.26,40.01,1.26c0,0-29.44,2.15-35.23,5.73-5.79,3.58-41.08,8.79-46.81,17.42-5.72,8.63-7.47,17.61-8.14,19-.67,1.39-57.29,2.15-57.29,2.15Z"/>
    <path class="cls-4" d="M50.28,149.52c2.01,1.94,36.24,22.08,41.27,42.71,5.03,20.63,12.16,33.97,16.14,37.24s20.09,42.8,20.34,51.59c.25,8.79,11.07,24.66,10.57,26.42s-4.53,12.08-6.79,12.08-20.13-9.62-20.63-10.35-3.77-17.33-1.26-24.13c2.52-6.79-4.09-32.33-7.45-43.59-3.37-11.27-17.46-38.99-29.79-51.3-12.33-12.31-22.4-40.68-22.4-40.68Z"/>
    <path class="cls-4" d="M235.83,209.94c1.89-1.13,20.57-1.51,26.99,0,0,0-16.8,15.48-20.19,26.61s-15.31,29.25-18.32,33.22c-3.01,3.96-9.99,37.37-9.99,37.37,0,0-3.96-.19-3.96-.94s12.81-38.5,13.96-43.22c1.14-4.72-8.29-13.97-4.52-33.22,3.77-19.25,16.04-19.82,16.04-19.82Z"/>
    <path class="cls-4" d="M179.78,306.19c0-.57,23.4-48.32,35.86-56.62,12.46-8.3,40.39-68.89,47.94-78.33s7.74-13.02,7.74-13.02c0,0-21.33,20.49-31.71,26.29s-24.54,35.81-32.65,42.6-33.41,80.21-33.22,80.78,6.04-1.7,6.04-1.7Z"/>
    <path class="cls-4" d="M181.19,247.87c.29-2.26,20.86-29.57,28.41-35.83,7.55-6.26,54.92-13.06,63.04-1.54,8.12,11.51,43.6,27.93,43.6,27.93,0,0-5.47-40.96-44.92-46.81s-70.21,6.98-84.55,23.59c-14.34,16.61-5.57,32.65-5.57,32.65Z"/>
    <path class="cls-4" d="M133.16,118.02c.18-.73-21.33,23.03-25.1,45.11s22.84,68.32,27.18,74.93c4.34,6.61,19.44,66.81,19.44,67.38s6.98-17.55,6.23-33.78c-.75-16.23-22.08-39.45-23.03-54.92-.94-15.48-8.12-84.93-4.72-98.71Z"/>
    <path class="cls-4" d="M98.05,59.14c-1.13,2.08,1.7,16.23,5.66,34.73s21.52,52.85,23.21,71.91c1.7,19.06,13.97,71.34,9.63,86.25s14.34,57.19,14.34,57.19c0,0,11.51,1.51,10.76,0s-24.54-54.54-19.25-72.29c5.28-17.74,16.61-58.37-2.64-87.41-19.25-29.04-9.06-22.25-10.95-42.06s-30.76-48.32-30.76-48.32Z"/>
    <path class="cls-4" d="M228.57,19.7c.1-1.66-1.95-2.52-3.06-1.27-12.06,13.5-52.4,60.44-61.39,80.73-10.38,23.4-18.12,52.09-12.27,84.74,5.85,32.65,18.68,62.85,19.44,80.97.75,18.12-7.95,41.4-7.95,41.4,0,0,14.54-1.49,14.73-1.91s6.99-29.49,5.1-48.36,17.74-88.89,28.88-111.54c9.7-19.73,15.25-103.51,16.52-124.75Z"/>
    <path class="cls-4" d="M139.41,293.13c-1.39.06-1.87-1.83-.62-2.43,10-4.81,31.6-14.42,45.07-14.72,17.78-.4,27.48,9.49,29.08,14.96,1.6,5.48,14.38,10.13,10.69,13.54-3.68,3.41-5.24,10.05-5.24,10.05l-13.5-1.19s4.84-12.52-1.41-17.71c-6.25-5.2-31.1-7.49-37.17-5.28-4.24,1.54-18.63,2.41-26.92,2.79Z"/>
    <path class="cls-4" d="M31.43,158.41c-.94.94-9.63-7.74-12.08-8.87s-11.32,36.99,17.93,79.08c29.25,42.09,50.39,53.41,54.92,57.19s14.34,15.29,14.91,21.7,6.42,7.02,6.42,7.02c0,0-3.02-13.81-6.61-22.68s-3.02-33.03-3.02-33.03c0,0-12-36.99-23.36-51.52-11.36-14.53-49.11-48.88-49.11-48.88Z"/>
    <path class="cls-4" d="M15.76,115c-2.26-1.95,8.3,19.63,8.87,30.76s-2.8,39.64,44.54,84.93c47.34,45.29,46.97,55.55,46.79,74.49l4.54,4.03s4.34-.94-.75-23.78c-5.1-22.84-3.77-38.12-29.25-52.28-25.48-14.16-34.92-58.32-38.5-67.76-3.59-9.44-12.65-30.01-36.24-50.39Z"/>
    <path class="cls-4" d="M133.54,305.41c-1.89-5.44-3.02-16.58-12.46-24.88-9.44-8.3-24.35-31.33-46.43-30.2-22.08,1.13-41.14,25.23-54.17,55.08,0,0,1.13-12.8,8.12-26.02,6.98-13.21,14.34-25.56,26.61-29.11,12.27-3.55,33.78-8.83,55.49,5.14,21.7,13.97,38.5,34.29,36.05,49.98-2.45,15.7-13.21,0-13.21,0Z"/>
    <path class="cls-4" d="M189.37,303.71c1.35-3.75,7.2-20.73,13.61-28.66s11.32-41.14,8.68-51.34c0,0-9.63,19.06-13.02,32.46-3.4,13.4-13.81,47.81-13.81,47.81l4.53-.27"/>
  </g>
  <path class="cls-3" d="M242.08,349.9c-25.81,3.35-54.44,5.8-85.49,6.49-25.63.57-49.61-.12-71.68-1.61-.51.02-3.24.05-5.52-2.09-1.44-1.35-2.36-3.25-2.43-5.38,1.03-5.12,1.87-11.92,1.41-19.88-.35-6.13-1.38-11.43-2.52-15.68-.02-.51-.05-3.24,2.09-5.52,1.35-1.44,3.25-2.36,5.38-2.43,24.38,1.49,51.07,2.08,79.75,1.15,27.87-.9,53.77-3.1,77.43-6.03.51-.02,3.24-.05,5.52,2.09,1.44,1.35,2.36,3.25,2.43,5.38,1.16,4.95,2.18,11.2,2.35,18.45.15,6.62-.45,12.41-1.24,17.11.02.51.05,3.24-7.46,7.94Z"/>
</svg>