<?xml version="1.0" encoding="UTF-8"?>
<svg id="Layer_6" data-name="Layer 6" xmlns="http://www.w3.org/2000/svg" viewBox="0 0 627.83 42.93">
  <defs>
    <style>
      .cls-1 {
        fill: #afafaf;
      }

      .cls-1, .cls-2 {
        stroke-width: 0px;
      }

      .cls-2 {
        fill: #7f7f7f;
      }
    </style>
  </defs>
  <path class="cls-1" d="M18.41,10.3h588.72c1.73,0,3.14,1.41,3.14,3.14v13.72c0,1.73-1.41,3.14-3.14,3.14H18.41c-1.73,0-3.14-1.41-3.14-3.14v-13.72c0-1.73,1.41-3.14,3.14-3.14Z"/>
  <path class="cls-2" d="M607.13,12.8c.35,0,.64.29.64.64v13.72c0,.35-.29.64-.64.64H18.41c-.35,0-.64-.29-.64-.64v-13.72c0-.35.29-.64.64-.64h588.72M607.13,7.8H18.41c-3.11,0-5.64,2.52-5.64,5.64v13.72c0,3.11,2.52,5.64,5.64,5.64h588.72c3.11,0,5.64-2.52,5.64-5.64v-13.72c0-3.11-2.52-5.64-5.64-5.64h0Z"/>
</svg>