<?xml version="1.0" encoding="UTF-8"?>
<svg id="Layer_6" data-name="Layer 6" xmlns="http://www.w3.org/2000/svg" xmlns:xlink="http://www.w3.org/1999/xlink" viewBox="0 0 300 175">
  <defs>
    <style>
      .cls-1 {
        fill: #c42117;
      }

      .cls-1, .cls-2, .cls-3, .cls-4, .cls-5, .cls-6 {
        stroke-width: 0px;
      }

      .cls-7, .cls-8, .cls-4 {
        fill: #232220;
      }

      .cls-2 {
        fill: #c44b6c;
      }

      .cls-8, .cls-9 {
        stroke: #161613;
      }

      .cls-8, .cls-9, .cls-10 {
        stroke-width: 2.38px;
      }

      .cls-8, .cls-9, .cls-10, .cls-11 {
        stroke-miterlimit: 10;
      }

      .cls-3 {
        fill: #574150;
      }

      .cls-12 {
        clip-path: url(#clippath);
      }

      .cls-9 {
        fill: none;
      }

      .cls-10 {
        fill: #1e1e1e;
        stroke: #0a0a09;
      }

      .cls-5 {
        fill: #151314;
      }

      .cls-11 {
        fill: #696563;
        stroke: #47413f;
        stroke-width: 4.76px;
      }

      .cls-6 {
        fill: #2b2b29;
      }
    </style>
    <clipPath id="clippath">
      <path class="cls-8" d="M19.22,77.24s3.36-16.79,9.29-23.61,12.75-3.15,12.75,0,2.27,18.09,15.56,20.24,35.46-6.08,40.2-10.36,17.16-9.88,26.25-9.53c9.09.35,37.95,7,66.11,21.34,28.16,14.34,32.18,13.99,40.22,12.42,0,0,26.23,8.04,32.88,8.04s22.04,2.8,24.83,8.74-34.63,29.21-34.63,29.21l-90.48,5.27s-22.84-16.99-25.47-18.56-38.35-14.86-38.35-14.86l19.03,22.98-34.27,2.05-62.71-12.04-1.22-41.31Z"/>
    </clipPath>
  </defs>
  <path class="cls-10" d="M120.56,52.23s-13.73-9.79-12.68-24.66c1.05-14.86,16.44-15.04,19.06-10.84s23.43,20.46,24.83,23.08,10.32,9.44,12.42,14.69-3.82,4.55-3.82,4.55l-39.81-6.82Z"/>
  <path class="cls-10" d="M32.33,51.53s2.27-2.62,8.22-4.2,9.79,4.9,14.52,11.19c4.72,6.3,11.89,9.62,24.13,6.12,12.24-3.5,19.59-5.77,26.76-12.07,7.17-6.3,18.71-3.5,24.48-1.57s30.08,4.2,36.73,7.69c6.65,3.5,66.28,26.58,62.43,29.03s-26.79,4.2-27.91,4.2-161.95-13.82-161.95-13.82l-7.41-26.58Z"/>
  <g>
    <path class="cls-7" d="M19.22,77.24s3.36-16.79,9.29-23.61,12.75-3.15,12.75,0,2.27,18.09,15.56,20.24,35.46-6.08,40.2-10.36,17.16-9.88,26.25-9.53c9.09.35,37.95,7,66.11,21.34,28.16,14.34,32.18,13.99,40.22,12.42,0,0,26.23,8.04,32.88,8.04s22.04,2.8,24.83,8.74-34.63,29.21-34.63,29.21l-90.48,5.27s-22.84-16.99-25.47-18.56-38.35-14.86-38.35-14.86l19.03,22.98-34.27,2.05-62.71-12.04-1.22-41.31Z"/>
    <g class="cls-12">
      <path class="cls-6" d="M20.39,63.07s7.69,12.07,16.61,19.32c8.92,7.26,39.35,32.09,43.9,32.96,4.55.87.52-4.9-3.15-7.87s-6.47-14.86.35-18.89c6.82-4.02,20.64-2.62,40.05,4.55,19.41,7.17,31.48,12.94,64.88,16.26,33.4,3.32,86.04-.17,94.09-2.27s-9.79,24.66-9.79,24.66l-109.13,7.19-101.43-1.32-37.95-25.64s-14.69-36.2,1.57-48.97Z"/>
    </g>
    <path class="cls-9" d="M19.22,77.24s3.36-16.79,9.29-23.61,12.75-3.15,12.75,0,2.27,18.09,15.56,20.24,35.46-6.08,40.2-10.36,17.16-9.88,26.25-9.53c9.09.35,37.95,7,66.11,21.34,28.16,14.34,32.18,13.99,40.22,12.42,0,0,26.23,8.04,32.88,8.04s22.04,2.8,24.83,8.74-34.63,29.21-34.63,29.21l-90.48,5.27s-22.84-16.99-25.47-18.56-38.35-14.86-38.35-14.86l19.03,22.98-34.27,2.05-62.71-12.04-1.22-41.31Z"/>
  </g>
  <path class="cls-5" d="M257.16,126.12s.43-6.77,9.76-13.45,15.5-9.68,20.3-9.76,6.94,6.77,6.85,9.51-2.48,8.31-2.48,8.31l-34.43,5.4Z"/>
  <path class="cls-3" d="M16.59,83.64s-3.17,12.25-1.71,22.27,19.44-4.62,19.44-4.62c0,0-16.38-24.62-17.73-17.64Z"/>
  <path class="cls-5" d="M14.88,105.91c.09.26,1.28,7.11,3.08,8.05s21.32-4.88,23.21-8.48,1.54-8.31-6.17-15.76-14.82-15.84-14.82-15.84c0,0-1.63-.34-2.91,2.4s-.69,7.37-.69,7.37c0,0,11.3,12.67,12.33,13.79s3.1,3.85-.42,5.48-13.62,3-13.62,3Z"/>
  <g>
    <path class="cls-3" d="M129.88,149.45s6.79-3.4,11.57,1.56,19.48-18.95,18.91-19.6-44.03-27.03-44.03-27.03l-19.31-.66s3.12,9.04,5.18,11.25,13.88,21.03,15.03,22.26,12.65,12.21,12.65,12.21Z"/>
    <path class="cls-1" d="M120.56,118.55s17.71,15.95,20.3,16.09,5.67-1.65,2.27-8.46c0,0,1.01,6.24-6.64,1.61-7.26-4.39-15.92-9.24-15.92-9.24Z"/>
  </g>
  <path class="cls-4" d="M145.97,154.13s1.38,5.51,9.64,6.77c8.26,1.26,26.58,1.91,53.31-2.3,26.74-4.21,56.72-17.34,66.11-22.04s15.59-10.53,15.9-14.42-144.96,31.99-144.96,31.99Z"/>
  <path class="cls-11" d="M162.66,130.1s13.41,4.37,53.5,0,66.49-8.11,73.31-12.17c0,0,5.15,3.12-3.9,8.89-9.05,5.77-40.56,19.65-73.16,26.05-32.6,6.4-54.13,5.3-66.45,1.25,0,0-9.76-6.4,1.51-13.1,11.28-6.71,15.18-10.92,15.18-10.92Z"/>
  <path class="cls-4" d="M145.48,155.34s-6.31-8.23,2-11.82c8.31-3.59,21.46-4.06,20.74-10.61s-30.67-23.71-56.26-32.76c-25.58-9.05-29.32-5.3-26.98,0s25.51,23.21,25.51,23.21c0,0,17.88,11.16,16.6,20.15-1.28,9-24.63,12.64-24.63,12.64L17.75,112.63s-12.48,4.53-13.73,18.26,9.51,23.71,25.11,26.98c15.6,3.28,36.03,3.12,51.79,2.96s33.22-.16,38.37-3.43,4.9-5.77,12.75-8.89c0,0,4.1-13.73-11.03-25.58-15.13-11.85-23.71-18.56-15.91-16.22s27.45,10.61,37.44,16.22c9.98,5.62,16.22,9.36,12.25,10.61s-12.87,5.62-13.81,10.45c-.94,4.84-.64,7.14,4.5,11.35Z"/>
  <path class="cls-11" d="M23.14,112.7c-2.34-.27-4.69.25-6.68,1.5-3.5,2.22-8.61,6.42-10.1,12.78-2.34,9.98.47,19.5,14.97,24.02,14.51,4.52,73.78,8.27,96.08,3.28,22.31-4.99,7.8-20.28,0-25.74s-5.93-6.71-19.03-7.64c-11.35-.81-61.95-6.66-75.25-8.2Z"/>
  <g>
    <circle class="cls-2" cx="22.74" cy="135.1" r="9.59"/>
    <circle class="cls-2" cx="50.19" cy="139" r="10.45"/>
    <circle class="cls-2" cx="79.99" cy="140.56" r="10.45"/>
    <circle class="cls-2" cx="108.84" cy="140.56" r="10.45"/>
  </g>
</svg>