<?xml version="1.0" encoding="UTF-8"?>
<svg id="Layer_6" data-name="Layer 6" xmlns="http://www.w3.org/2000/svg" viewBox="0 0 225 225">
  <defs>
    <style>
      .cls-1 {
        fill: none;
        stroke: #070709;
        stroke-linecap: round;
      }

      .cls-1, .cls-2, .cls-3, .cls-4 {
        stroke-miterlimit: 10;
      }

      .cls-1, .cls-3 {
        stroke-width: 2.05px;
      }

      .cls-2 {
        fill: #7e5351;
        stroke: #5b2e2d;
        stroke-width: 1.03px;
      }

      .cls-5 {
        fill: #070709;
      }

      .cls-5, .cls-6, .cls-7 {
        stroke-width: 0px;
      }

      .cls-3 {
        fill: #e4dfdf;
        stroke: #c6c6c6;
      }

      .cls-4 {
        fill: #aeabb0;
        stroke: #898989;
        stroke-width: 4.11px;
      }

      .cls-6 {
        fill: #cec8cf;
      }

      .cls-7 {
        fill: #1ea955;
      }
    </style>
  </defs>
  <path class="cls-4" d="M41.46,94.7s-20.06,17.22-24.71,30.17c-4.65,12.94.52,29.89,8.21,29.65,7.69-.23,13.18-7.51,13.18-7.51,0,0,20.2-19.5,20.2-20.35s-16.88-31.96-16.88-31.96Z"/>
  <path class="cls-4" d="M177.8,103.88s24.9,19.24,29.06,27.17,6.61,18.05,1.22,24.88-18.84,10.36-31.81,0c-12.97-10.36-8.94-43.38,1.52-52.05Z"/>
  <path class="cls-4" d="M128.57,51.67s3.43-14.59,3.43-19.54,3.67-15.14,11.75-14.63,15.63,6.51,13.69,22.93c-1.94,16.42.99,27.01-4.14,23.95s-24.71-12.71-24.71-12.71Z"/>
  <path class="cls-4" d="M88.68,53.51c-.24-1.37,3.18-16.17,3.67-20.31.49-4.13,4.89-16.45-8.32-18.06-13.21-1.61-15.66,12.2-16.88,19.18-1.22,6.98-.98,25.72-.98,25.72l22.51-6.54Z"/>
  <path class="cls-4" d="M45.74,116.22c.96,3.52.67,7.24-.85,10.57-2.29,5.05-5.59,13.34-7.1,22.08-2.45,14.12,8.07,51.69,21.29,61.38s81.4,10.4,98.94-2.31c17.54-12.71,26.59-29.36,25.86-43.63-.46-8.85-5.24-19.28-8.81-25.92-2.23-4.16-2.48-9.02-.74-13.39,2.41-6.06,4.99-15.39,2.95-24.39-3.43-15.06-12.94-29.89-22.99-39.54s-44.3-23.64-74.4-12.17c-30.1,11.47-38.66,37.27-38.42,45.79.16,5.54,2.6,15.34,4.28,21.52Z"/>
  <path class="cls-3" d="M60.6,122.87c-4.4.77-8.02,3.69-9.56,7.68-2.68,6.96-6.17,19.04-5.54,33.74.99,23.4,21.59,40.27,40.45,45.97s62.29-1.11,72.46-10.78,17.37-19.75,15.63-33.56c-1.23-9.77-7.55-25.38-11.14-33.69-1.54-3.56-4.78-6.19-8.72-7.09-10.19-2.32-30.73-6.63-44.94-7.25-14.34-.62-37.37,3.01-48.64,4.99Z"/>
  <path class="cls-7" d="M111.17,44.14c-4.7-1.19-9.65-1.21-14.4-.19-3.27.7-6.78,1.85-8.5,3.7-3.66,3.93,4.14,9.31,17.73,9.2,0,0,9.46-3.45,11.11-8.06.83-2.31-2.45-3.77-5.94-4.65Z"/>
  <g>
    <path class="cls-5" d="M196.23,123.13c-1.13-3.05-3.17-5.76-5.98-7.58-3.13-2.03-7.77-3.55-13.8-1.48-12.06,4.15-8.39,27.93.95,34.33s18.79-1.23,20.92-8.97c1.45-5.29-.62-12.35-2.08-16.3Z"/>
    <ellipse class="cls-6" cx="180.23" cy="129.5" rx="3.78" ry="4.99"/>
    <ellipse class="cls-6" cx="189.92" cy="132.92" rx="4.26" ry="4.82"/>
    <ellipse class="cls-5" cx="181.41" cy="129.1" rx="1.42" ry="1.35"/>
    <ellipse class="cls-5" cx="188.62" cy="132.13" rx="1.48" ry="1.4"/>
  </g>
  <path class="cls-2" d="M111.43,83.11s-6.5-1.91-10.17,1.46c-3.66,3.37.12,8.53,2.96,10.99s7.33,1.01,9.46-1.57,4.96-6.51-2.25-10.88Z"/>
  <g>
    <ellipse class="cls-3" cx="80.23" cy="81.79" rx="9.22" ry="9.62"/>
    <ellipse class="cls-3" cx="136.79" cy="83.86" rx="8.69" ry="10.47"/>
    <ellipse class="cls-5" cx="80.82" cy="81.95" rx="2.86" ry="2.71"/>
    <ellipse class="cls-5" cx="136.26" cy="84.66" rx="3.03" ry="2.87"/>
  </g>
  <g>
    <line class="cls-1" x1="53.16" y1="87.53" x2="62.38" y2="86.03"/>
    <line class="cls-1" x1="52.33" y1="96.83" x2="63.09" y2="93.43"/>
    <path class="cls-1" d="M51.5,104.54c.59.11,12.41-4.37,12.41-4.37"/>
    <line class="cls-1" x1="153.04" y1="88.94" x2="165.1" y2="91.75"/>
    <line class="cls-1" x1="153.51" y1="96.83" x2="165.1" y2="100.83"/>
    <line class="cls-1" x1="152.45" y1="103.19" x2="165.1" y2="109.58"/>
  </g>
</svg>