<?xml version="1.0" encoding="UTF-8"?>
<svg id="Layer_6" data-name="Layer 6" xmlns="http://www.w3.org/2000/svg" viewBox="0 0 200 275">
  <defs>
    <style>
      .cls-1 {
        fill: #1c2447;
        stroke: #101533;
        stroke-width: 2px;
      }

      .cls-1, .cls-2 {
        stroke-miterlimit: 10;
      }

      .cls-2 {
        fill: #c9c3b7;
        stroke: #a39a8b;
        stroke-width: 4px;
      }
    </style>
  </defs>
  <path class="cls-1" d="M73.52,31.48s-11.91,4.62-18.71,4.62-12.63,3.89-10.93,10.93c1.7,7.05,10.69,11.91,3.4,17.01-7.29,5.1-14.09-2.43-17.01,4.86-2.92,7.29,2.67,10.69,2.92,15.06.24,4.37-2.84,23.87-2.84,23.87,0,0,24.46-15.85,24.71-21.2.24-5.35-1.21-12.15,4.13-9.72,5.35,2.43,10.45.3,9.72-7.26-.73-7.56-.49-14.61-3.16-18.25s-1.21-8.99,6.56-5.59c7.78,3.4,1.21-14.34,1.21-14.34ZM39.51,82.26c.36-3.16,2.06-3.58,3.66-3.22,2.13.49,3.6,2.41,3.85,4.58.85,7.41-8.16,4.29-7.51-1.36Z"/>
  <path class="cls-1" d="M129.39,45.82c7.78-3.4,9.23,1.94,6.56,5.59s-2.43,10.69-3.16,18.25c-.73,7.56,4.37,9.69,9.72,7.26,5.35-2.43,3.89,4.37,4.13,9.72.24,5.35,24.71,21.2,24.71,21.2,0,0-3.08-19.5-2.84-23.87.24-4.37,5.83-7.78,2.92-15.06-2.92-7.29-9.72.24-17.01-4.86-7.29-5.1,1.7-9.96,3.4-17.01,1.7-7.05-4.13-10.93-10.93-10.93s-18.71-4.62-18.71-4.62c0,0-6.56,17.74,1.21,14.34ZM154.68,83.63c.25-2.17,1.72-4.1,3.85-4.58,1.6-.36,3.29.06,3.66,3.22.65,5.65-8.36,8.78-7.51,1.36Z"/>
  <path class="cls-2" d="M100.97,9.86s12.4-.73,22.6,4.13,9.96,11.18,6.8,20.17c-3.16,8.99-4.37,42.52-3.16,44.71s26.97,11.25,39.6,25.92c12.63,14.66,30.86,41.8,19.44,81.93-11.42,40.13-33.04,57.14-34.75,59.57s4.33,13.54-6.1,17.1-45.66,6.48-72.14,2.47-25.34-5.96-27.01-14.22-7.01-10.2-17.7-26.24-23.33-44.46-16.52-81.88,40.33-52.97,52.48-59.77,11.18-6.56,8.5-20.9-4.62-38.63-2.67-43.01,18.02-10.93,30.61-9.96Z"/>
  <path class="cls-1" d="M137.76,171.17c-1.05-26.98,13.07-33.3,13.07-33.3-4.22-6.11-14.12-8.85-14.12-8.85-19.39,14.55-9.27,59.21-9.27,59.21-2.42-3.27-10.53-9.85-19.72-16.82,1.18-3.96,2.77-8.67,4.75-13.08,4.64-10.34,11.8-33.95,21.5-34.79,0,0-5.06-10.12-19.39-17.5,0,0,6.11,14.99-13.6,52.29,0,0-21.18-32.68-12.12-53.55,0,0-18.13,7.59-20.87,18.34,0,0,9.27,5.27,15.39,21.92,1.46,3.99,2.69,7.75,3.72,11.23-2.04-1.47-3.94-2.83-5.62-4.03-13.49-9.67-18.42-28.16-18.97-27.85-9.06,5.06-15.39,14.84-15.39,14.84,11.59,12.73,14.12,26.06,11.17,39.61-2.95,13.55-12.01,31.13-12.01,31.13,8.01,8.22,18.76,13.49,18.76,13.49,0,0-1.48-10.96-.63-16s3.79-24.89,5.48-30.81c1.69-5.92-2.95-26.33-2.95-26.33,0,0,8.22,10.75,18.76,17.71,1.55,1.02,3.21,2.05,4.95,3.11.59,3.5.82,6.14.74,7.7-.21,4.36,1.08,23.33.01,27.55-1.07,4.22-2.97,10.96-8.23,13.7,0,0,14.97,4.01,29.3,1.05,0,0-7.38-1.26-7.38-16.86s.21-23.61.21-23.61c0,0,.02-.1.06-.27,6.09,4.21,12.1,9.16,17.01,15.45,10.54,13.49,10.33,27.61,10.33,27.61,12.02-6.75,19.39-18.13,19.39-18.13-4.43-.84-13.28-7.17-14.33-34.15Z"/>
</svg>